<svg width="1222" height="620" viewBox="0 0 1222 620" fill="none" xmlns="http://www.w3.org/2000/svg">
<path d="M169.595 485.931C144.425 485.931 134.383 482.499 111.5 475.634C88.6178 468.311 70.8913 457.328 53.5005 442.683C36.5673 428.038 24.5689 409.732 14.5005 387.764C4.43211 365.797 1.20144e-05 339.94 1.20144e-05 310.192C1.20144e-05 280.445 2.93158 254.587 12.9999 232.62C23.0683 210.652 34.5668 192.346 51.5 177.701C68.8908 163.056 83.1173 151.866 106 145.001C128.883 137.679 145.798 133.001 170.968 133.001C196.139 133.001 220.033 135.679 242 143.001C264.425 150.323 284.525 161.856 301 176.501C317.476 190.688 329.389 211.034 339 233.001C348.611 254.968 352.199 280.445 352.199 310.192C352.199 315.226 352.199 318.659 352.199 320.489C352.199 321.862 351.742 324.837 350.826 329.414H51.521C56.5552 363.738 73.9903 396.568 95.5 413.501C117.01 430.434 139.422 438.959 171 438.501C197.544 438.043 221.821 434.612 241.5 425.001C261.637 415.39 289.389 391.13 299 365.501L346.5 376.001C340.093 396.595 331.147 409.503 319.248 424.148C307.807 438.793 294.306 450.692 278.746 459.845C263.186 468.54 246.024 475.176 227.26 479.753C208.954 483.872 189.732 485.931 169.595 485.931ZM171 178.501C155.897 178.501 135.603 185.551 120.5 191.501C105.397 196.993 93.9414 210.102 82.5 222.001C71.0587 233.442 65.2506 248.409 58.3858 266.257C51.9786 284.106 49.6904 305.158 51.521 329.414C54.2669 320.261 57.2417 312.938 60.4452 307.446C64.1065 301.954 68.2253 297.836 72.8019 295.09C77.8361 292.344 83.3279 290.513 89.2774 289.598C95.6845 288.682 103.007 288.225 111.245 288.225H301C295.966 252.986 276.552 219.061 255.5 203.501C234.906 187.483 202.578 178.959 171 178.501Z" fill="#FFDD00"/>
<path d="M394.398 137.001H448V183.5C448 191.28 446.741 200.126 445 209.279C443.259 218.432 441.176 224.22 439 232L444 220.95C446.176 213.627 447.018 214.195 450.5 205.5C454.417 196.805 460.778 188.992 466 183.5C473.399 175.262 487.531 167.407 497.54 161C507.985 154.135 519.62 150.577 530.5 146C541.815 140.966 554.75 138.288 566.5 136C578.251 133.712 591.555 133 602 133C650.743 133.458 686.853 149.556 714.271 178.388C741.689 206.762 755.398 250.697 755.398 310.192C755.398 369.687 740.918 413.169 713.5 442.001C686.083 470.833 648.773 485.931 600.03 485.931C589.586 485.931 577.751 485.746 566 483C554.25 480.712 543.815 477.619 532.5 473.5C521.62 468.923 510.445 465.907 500 459.5C489.99 453.093 479.5 448.001 470.5 440C465.278 434.508 455.417 425.195 451.5 416.5C448.018 407.805 443.676 399.322 441.5 392L439 387.5C441.176 395.28 443.759 404.347 445.5 413.5C447.241 422.653 448.5 432.22 448.5 440V619.108H395.05L394.398 137.001ZM448.5 310.192C448.5 328.498 452.062 345.203 459.025 360.305C466.5 382.001 486.685 399.975 498 410.501C509.316 421.027 521.694 425.009 536.056 430.501C550.417 435.993 564.779 438.001 579.141 438.001C619.179 438.001 653.592 429.18 671 409.501C688.409 389.822 704.5 351.501 702 310.192C702 269.461 694.409 235.265 677 216.501C659.592 197.737 625 178.388 579.141 181.001C564.779 181.001 547.862 184.009 533.5 189.501C519.139 194.535 499.816 206.433 488.5 216.501C477.185 226.569 465.399 244.856 458 259.501C451.037 274.146 448.5 291.428 448.5 310.192Z" fill="#FFDD00"/>
<path d="M850.398 47.3164V0H795.771V47.3164H850.398ZM797.5 137.001H849.5V481.001H797.5V137.001Z" fill="#FFDD00"/>
<path d="M891.5 480.54V0.00429475L944.5 0.00527132L942.5 270.5C942.5 278.28 943.222 292.347 941 301.5C939.222 310.195 933.556 329.635 930 336.5L940 321.096C943.111 314.231 949 309 955 301.5C961.5 294.501 970.278 287.035 976.5 282.001L1140 137.3H1211L1060.5 275.501L1221 479.854H1219.56V480.54L1218.9 479.854H1156.23L1021 309.001L944 374.501L943.5 480.54H891.5Z" fill="#FFDD00"/>
<path d="M508.626 564.404H514.5V618.001H508.626V564.404Z" fill="#FFDD00"/>
<path d="M557.5 618.001V563.501H564.927L593.236 603.675C593.873 604.558 594.461 605.544 595 606.634C595.54 607.724 595.956 608.788 596.25 609.826L596.398 609.748C596.054 608.762 595.785 607.646 595.589 606.4C595.393 605.155 595.295 604.013 595.295 602.975V563.501H602.5V618.001H595.074L566.692 578.294C566.103 577.463 565.54 576.503 565 575.413C564.461 574.271 564.02 573.181 563.677 572.143L563.603 572.221C563.898 573.259 564.143 574.401 564.339 575.647C564.584 576.841 564.706 577.982 564.706 579.072V618.001H557.5Z" fill="#FFDD00"/>
<path d="M624.813 563.501H632.416L648.718 611.539C648.816 611.902 648.889 612.317 648.937 612.785C648.986 613.252 649.01 613.693 649.01 614.108H649.157C649.157 613.693 649.181 613.252 649.23 612.785C649.327 612.317 649.425 611.902 649.522 611.539L665.825 563.501H673.5L655.005 618.001H643.308L624.813 563.501Z" fill="#FFDD00"/>
<path d="M699.232 563.702H737.5V570.839H706.362V588.447H736.482V594.808H706.362V610.865H737.5V618.001H699.232V563.702Z" fill="#FFDD00"/>
<path d="M772.495 601.369C772.741 604.407 774.091 606.761 776.545 608.432C779.048 610.103 782.386 610.964 786.559 611.014C791.222 611.014 794.83 610.179 797.382 608.508C799.984 606.837 801.285 604.382 801.285 601.142C801.285 599.572 800.769 598.332 799.738 597.42C798.757 596.509 797.431 595.775 795.762 595.218C794.143 594.611 792.277 594.155 790.167 593.851C788.105 593.497 785.97 593.142 783.761 592.788C781.601 592.383 779.466 591.927 777.355 591.421C775.293 590.864 773.428 590.105 771.759 589.143C770.139 588.181 768.814 586.94 767.783 585.421C766.801 583.852 766.31 581.903 766.31 579.574C766.31 576.89 766.826 574.562 767.857 572.587C768.937 570.562 770.409 568.891 772.274 567.575C774.14 566.258 776.324 565.271 778.828 564.613C781.331 563.955 784.006 563.651 786.853 563.702C789.504 563.752 791.958 564.081 794.216 564.689C796.523 565.297 798.536 566.208 800.254 567.423C802.021 568.587 803.445 570.056 804.524 571.828C805.604 573.6 806.242 575.675 806.439 578.055L799.518 579.042C799.272 576.41 798.168 574.359 796.204 572.891C794.241 571.423 791.124 570.688 786.853 570.688C782.632 570.688 779.343 571.473 776.987 573.043C774.68 574.562 773.526 576.739 773.526 579.574C773.526 580.991 774.017 582.105 774.999 582.915C776.03 583.675 777.355 584.308 778.975 584.814C780.644 585.27 782.509 585.649 784.571 585.953C786.681 586.257 788.817 586.586 790.977 586.94C793.185 587.295 795.321 587.75 797.382 588.307C799.493 588.864 801.358 589.674 802.978 590.737C804.647 591.75 805.973 593.066 806.954 594.686C807.985 596.307 808.5 598.382 808.5 600.914C808.5 602.736 808.181 604.66 807.543 606.685C806.954 608.66 805.825 610.508 804.156 612.229C802.536 613.9 800.303 615.292 797.456 616.406C794.658 617.469 791.05 618.001 786.632 618.001C782.558 618.001 779.196 617.545 776.545 616.634C773.894 615.723 771.759 614.533 770.139 613.065C768.568 611.546 767.439 609.85 766.752 607.976C766.065 606.103 765.648 604.205 765.5 602.281L772.495 601.369Z" fill="#FFDD00"/>
<path d="M878.5 563.696V570.833H862.33C861.589 570.833 860.822 570.652 860.031 570.29C859.289 569.928 858.646 569.463 858.102 568.894L857.954 569.049C858.498 569.618 858.943 570.316 859.289 571.144C859.635 571.92 859.809 572.695 859.809 573.471V618.001H852.539V570.833H833.847V563.696H878.5Z" fill="#FFDD00"/>
<path d="M906.064 563.696L923.897 607.761C924.045 608.174 924.143 608.64 924.192 609.157C924.29 609.623 924.34 610.062 924.34 610.476H924.487C924.487 610.062 924.512 609.623 924.561 609.157C924.659 608.64 924.782 608.174 924.929 607.761L942.763 563.696H950.5V618.001H943.279V584.72C943.279 583.168 943.377 581.462 943.573 579.6C943.819 577.686 944.089 575.954 944.384 574.402H944.237C943.942 575.902 943.524 577.557 942.984 579.367C942.443 581.177 941.878 582.806 941.289 584.254L928.024 618.001H920.802L907.538 584.254C906.948 582.806 906.383 581.177 905.843 579.367C905.302 577.557 904.885 575.902 904.59 574.402H904.443C904.737 575.954 904.983 577.686 905.18 579.6C905.425 581.462 905.548 583.168 905.548 584.72V618.001H898.326V563.696H906.064Z" fill="#FFDD00"/>
<path d="M974.5 564.405H1012.5V571.449H981.58V588.829H1011.49V595.108H981.58V610.957H1012.5V618.001H974.5V564.405Z" fill="#FFDD00"/>
<path d="M1040 618.001V564.405H1047.51L1076.13 603.913C1076.78 604.781 1077.37 605.751 1077.92 606.822C1078.46 607.894 1078.88 608.941 1079.18 609.962L1079.33 609.885C1078.98 608.915 1078.71 607.818 1078.51 606.593C1078.31 605.368 1078.21 604.245 1078.21 603.224V564.405H1085.5V618.001H1077.99L1049.29 578.953C1048.7 578.136 1048.13 577.192 1047.58 576.12C1047.04 574.997 1046.59 573.925 1046.25 572.904L1046.17 572.981C1046.47 574.001 1046.72 575.124 1046.91 576.349C1047.16 577.523 1047.29 578.646 1047.29 579.718V618.001H1040Z" fill="#FFDD00"/>
<path d="M1153.5 563.696V570.833H1137.57C1136.84 570.833 1136.08 570.652 1135.3 570.29C1134.57 569.928 1133.94 569.463 1133.4 568.894L1133.25 569.049C1133.79 569.618 1134.23 570.316 1134.57 571.144C1134.91 571.92 1135.08 572.695 1135.08 573.471V618.001H1127.92V570.833H1109.5V563.696H1153.5Z" fill="#FFDD00"/>
<path d="M1186.02 601.716C1186.26 604.782 1187.59 607.158 1190.01 608.844C1192.47 610.53 1195.76 611.399 1199.88 611.45C1204.47 611.45 1208.03 610.607 1210.54 608.921C1213.11 607.235 1214.39 604.756 1214.39 601.486C1214.39 599.902 1213.88 598.651 1212.87 597.731C1211.9 596.811 1210.59 596.07 1208.95 595.508C1207.35 594.895 1205.51 594.435 1203.43 594.129C1201.4 593.771 1199.3 593.413 1197.12 593.056C1194.99 592.647 1192.89 592.187 1190.81 591.676C1188.77 591.114 1186.94 590.348 1185.29 589.377C1183.69 588.406 1182.39 587.154 1181.37 585.621C1180.4 584.038 1179.92 582.07 1179.92 579.72C1179.92 577.012 1180.43 574.662 1181.44 572.669C1182.51 570.625 1183.96 568.939 1185.8 567.611C1187.64 566.282 1189.79 565.286 1192.26 564.621C1194.72 563.957 1197.36 563.651 1200.17 563.702C1202.78 563.753 1205.2 564.085 1207.42 564.698C1209.7 565.311 1211.68 566.231 1213.37 567.457C1215.11 568.632 1216.52 570.114 1217.58 571.902C1218.65 573.691 1219.28 575.786 1219.47 578.187L1212.65 579.184C1212.41 576.527 1211.32 574.457 1209.38 572.975C1207.45 571.494 1204.38 570.753 1200.17 570.753C1196.01 570.753 1192.76 571.545 1190.44 573.129C1188.17 574.662 1187.03 576.859 1187.03 579.72C1187.03 581.151 1187.52 582.275 1188.48 583.092C1189.5 583.859 1190.81 584.497 1192.4 585.008C1194.05 585.468 1195.89 585.851 1197.92 586.158C1200 586.465 1202.1 586.797 1204.23 587.154C1206.41 587.512 1208.51 587.972 1210.54 588.534C1212.62 589.096 1214.46 589.913 1216.06 590.986C1217.7 592.008 1219.01 593.337 1219.98 594.972C1220.99 596.607 1221.5 598.702 1221.5 601.256C1221.5 603.096 1221.19 605.037 1220.56 607.081C1219.98 609.074 1218.86 610.939 1217.22 612.676C1215.62 614.362 1213.42 615.767 1210.62 616.891C1207.86 617.964 1204.3 618.501 1199.95 618.501C1195.93 618.501 1192.62 618.041 1190.01 617.121C1187.4 616.202 1185.29 615.001 1183.69 613.519C1182.15 611.986 1181.03 610.275 1180.36 608.384C1179.68 606.494 1179.27 604.578 1179.12 602.636L1186.02 601.716Z" fill="#FFDD00"/>
</svg>
